<?xml version="1.0" standalone="no"?>
<!DOCTYPE svg PUBLIC "-//W3C//DTD SVG 20010904//EN"
 "http://www.w3.org/TR/2001/REC-SVG-20010904/DTD/svg10.dtd">
<svg version="1.0" xmlns="http://www.w3.org/2000/svg"
 width="200.000000pt" height="200.000000pt" viewBox="0 0 200.000000 200.000000"
 preserveAspectRatio="xMidYMid meet">

<g transform="translate(0.000000,200.000000) scale(0.100000,-0.100000)"
fill="#000000" stroke="none">
<path d="M760 1903 c-112 -18 -214 -72 -300 -157 -95 -96 -133 -152 -169 -252
-35 -97 -40 -167 -16 -254 14 -49 30 -120 54 -245 4 -22 31 -82 60 -132 29
-51 49 -98 45 -105 -4 -7 -3 -8 4 -4 7 4 13 1 13 -8 2 -21 3 -23 28 -96 7 -19
13 -42 13 -50 1 -8 6 -18 12 -22 7 -5 5 -8 -4 -8 -17 0 -84 -66 -118 -116 -18
-26 -30 -32 -73 -37 -28 -4 -72 -18 -97 -33 -73 -43 -123 -68 -170 -86 l-42
-16 0 -141 0 -141 1000 0 1000 0 0 215 0 214 -42 11 c-73 19 -91 29 -148 81
-73 68 -168 139 -206 155 -17 7 -62 16 -98 20 l-67 7 16 -39 c23 -56 41 -70
130 -103 73 -26 80 -31 83 -58 7 -71 -130 -214 -275 -287 -95 -47 -272 -86
-329 -72 l-27 7 22 23 22 24 -31 11 c-23 8 -31 15 -26 27 3 8 6 18 6 20 0 2 6
4 13 4 15 0 111 63 151 99 65 60 156 210 172 286 l6 30 -23 -35 c-12 -19 -29
-51 -39 -70 -28 -60 -55 -100 -66 -100 -6 0 -19 -9 -29 -20 -10 -11 -24 -20
-30 -20 -7 0 -30 -16 -51 -36 -22 -19 -68 -49 -103 -66 -51 -24 -72 -29 -103
-24 -50 8 -89 28 -136 70 -20 18 -54 43 -75 55 -54 33 -109 110 -174 244 -10
21 -25 46 -34 56 -9 10 -25 33 -34 51 -20 39 -55 180 -54 218 0 26 1 26 9 5 5
-12 26 -30 47 -38 32 -14 44 -14 78 -4 53 17 126 55 125 65 -1 5 4 10 11 13 8
2 10 -2 6 -12 -4 -11 -2 -14 9 -10 9 3 13 12 10 22 -4 11 -2 10 9 -3 8 -11 15
-32 15 -48 0 -15 5 -28 10 -28 15 0 12 87 -5 119 -8 16 -25 31 -38 34 -43 11
-228 10 -240 -2 -18 -18 -22 -13 -23 30 -1 23 -6 44 -11 48 -6 3 -16 23 -22
43 -11 34 -10 41 8 67 12 16 22 37 24 47 8 40 27 73 49 87 38 23 135 42 151
29 7 -6 32 -14 56 -18 41 -7 43 -6 37 14 -6 18 -2 23 21 28 15 4 52 18 82 31
41 17 71 23 117 22 34 -1 65 1 71 4 5 3 22 0 38 -8 17 -7 42 -16 57 -19 18 -4
29 -14 32 -29 2 -12 9 -51 15 -85 9 -57 15 -69 60 -113 35 -34 54 -63 61 -92
41 -159 56 -182 90 -137 11 15 23 21 34 17 13 -5 15 -2 10 18 -4 18 1 33 20
56 14 17 26 40 26 51 0 13 5 18 13 15 22 -8 8 43 -24 87 -21 29 -29 52 -29 81
0 53 -22 125 -65 217 -25 54 -54 94 -110 150 -88 90 -108 102 -228 134 -84 23
-192 30 -267 17z m-90 -832 c0 -5 -17 -12 -37 -16 -21 -3 -57 -15 -80 -25 -32
-14 -43 -16 -43 -6 0 16 42 36 78 37 15 0 36 4 47 9 27 11 35 12 35 1z m-55
-71 c3 -5 -3 -10 -15 -10 -12 0 -18 5 -15 10 3 6 10 10 15 10 5 0 12 -4 15
-10z"/>
<path d="M995 1235 c-27 -12 -69 -29 -92 -39 -29 -12 -45 -26 -52 -47 -5 -16
-9 -29 -7 -29 5 0 157 56 212 78 28 11 55 17 60 13 14 -13 64 -22 64 -13 0 5
-9 20 -19 34 -26 32 -96 34 -166 3z"/>
<path d="M991 1139 c-45 -9 -81 -33 -81 -54 0 -8 9 -10 24 -8 16 3 23 10 19
19 -6 15 12 20 21 5 6 -9 156 -3 166 6 3 2 -6 13 -20 23 -27 21 -59 23 -129 9z"/>
<path d="M740 860 c0 -11 5 -20 10 -20 6 0 10 9 10 20 0 11 -4 20 -10 20 -5 0
-10 -9 -10 -20z"/>
<path d="M1402 850 c0 -19 2 -27 5 -17 2 9 2 25 0 35 -3 9 -5 1 -5 -18z"/>
<path d="M732 781 c2 -13 15 -33 29 -43 23 -17 31 -18 68 -8 40 11 48 30 12
30 -10 0 -31 10 -46 21 -22 18 -29 20 -36 8 -8 -12 -11 -12 -19 1 -9 12 -10
10 -8 -9z"/>
<path d="M885 784 c-9 -9 -13 -19 -10 -22 3 -3 11 0 17 6 7 7 23 12 36 12 13
0 20 4 17 10 -9 15 -42 12 -60 -6z"/>
<path d="M1421 764 c0 -11 3 -14 6 -6 3 7 2 16 -1 19 -3 4 -6 -2 -5 -13z"/>
<path d="M1068 692 c-36 -16 -50 -32 -27 -32 5 0 7 -5 3 -12 -10 -15 48 26 66
47 15 19 6 18 -42 -3z"/>
<path d="M684 629 c-3 -5 -2 -9 3 -9 4 0 26 -16 47 -35 29 -25 46 -33 60 -29
32 10 43 24 19 24 -11 0 -23 6 -26 14 -4 10 7 17 39 25 24 6 44 12 44 14 0 7
-181 3 -186 -4z"/>
</g>
</svg>
